<?xml version="1.0" encoding="UTF-8" standalone="no"?>
<svg
   xmlns:dc="http://purl.org/dc/elements/1.1/"
   xmlns:cc="http://creativecommons.org/ns#"
   xmlns:rdf="http://www.w3.org/1999/02/22-rdf-syntax-ns#"
   xmlns:svg="http://www.w3.org/2000/svg"
   xmlns="http://www.w3.org/2000/svg"
   id="svg8"
   version="1.1"
   viewBox="0 0 50 72.400002"
   height="72.400002mm"
   width="50mm">
  <defs
     id="defs2">
    <linearGradient
       gradientUnits="userSpaceOnUse"
       gradientTransform="scale(0.85158188,1.1742852)"
       id="a"
       x1="24.289503"
       x2="140.66586"
       y1="24.096535"
       y2="108.74606">
      <stop
         offset="0%"
         stop-color="#fff"
         stop-opacity=".1"
         id="stop815" />
      <stop
         offset="14%"
         stop-color="#fff"
         stop-opacity=".08"
         id="stop817" />
      <stop
         offset="61%"
         stop-color="#fff"
         stop-opacity=".02"
         id="stop819" />
      <stop
         offset="100%"
         stop-color="#fff"
         stop-opacity="0"
         id="stop821" />
    </linearGradient>
    <path
       id="b"
       d="m 106.687,35.2742 c -0.186,-1.0977 -0.967,-2 -2.0244,-2.338 -1.0574,-0.338 -2.2148,-0.057 -3.0002,0.73 L 86.2473,49.166 74.1273,26.0205 C 73.614,25.0419 72.6023,24.4291 71.5,24.4291 c -1.1023,0 -2.114,0.6128 -2.6273,1.5914 L 62.245,38.6765 45.62,7.5726 C 45.017,6.4429 43.7612,5.8266 42.502,6.0429 41.2428,6.2592 40.2626,7.2589 40.0685,8.5256 L 24,111.701 66.9727,135.8664 c 2.6985,1.5113 5.985,1.5113 8.6836,0 L 119,111.701 106.687,35.274 Z" />
  </defs>
  <metadata
     id="metadata5">
    <rdf:RDF>
      <cc:Work
         rdf:about="">
        <dc:format>image/svg+xml</dc:format>
        <dc:type
           rdf:resource="http://purl.org/dc/dcmitype/StillImage" />
        <dc:title></dc:title>
      </cc:Work>
    </rdf:RDF>
  </metadata>
  <g
     transform="translate(0,-224.6)"
     id="layer1">
    <g
       transform="matrix(1.2795324,0,0,1.2795324,-18.417976,-71.92929)"
       id="g1008">
      <path
         style="opacity:0.54799996;fill:#00d1b2;fill-opacity:1"
         d="M 32.209126,231.77665 49.803918,249.37144 39.303267,259.87209 53.470876,274.0397 32.233931,288.33134 14.394302,270.71387 17.76173,245.77278 Z"
         id="path999" />
      <path
         style="opacity:0.54799996;fill:#00d1b2;fill-opacity:1;stroke-width:0.09354433"
         d="m 23.423348,279.37208 c -4.84507,-4.7878 -8.809217,-8.76837 -8.809217,-8.84572 0,-0.0773 0.736661,-5.59212 1.637025,-12.25505 0.900364,-6.66293 1.637027,-12.17137 1.637027,-12.24097 0,-0.10375 14.118431,-13.88687 14.302573,-13.96289 0.03122,-0.0129 3.950372,3.87034 8.709223,8.6294 l 8.652456,8.65284 -5.214844,5.21547 c -2.868165,2.86851 -5.214845,5.25732 -5.214845,5.30847 0,0.0512 3.162392,3.2556 7.027538,7.121 l 7.02754,7.02801 -0.549595,0.37107 c -4.971817,3.35682 -20.33977,13.68346 -20.363538,13.68346 -0.01767,0 -3.996274,-3.91729 -8.841343,-8.70509 z"
         id="path1001" />
      <path
         style="opacity:0.54799996;fill:#00d1b2;fill-opacity:1;stroke-width:0.18708867"
         d="m 24.132969,279.9746 c -4.437271,-4.39356 -8.377748,-8.34035 -8.756615,-8.77064 l -0.688854,-0.78234 1.231048,-9.2269 c 0.677074,-5.0748 1.397148,-10.53185 1.600166,-12.12678 l 0.36912,-2.89987 7.051441,-6.96905 c 3.878292,-3.83298 7.13011,-6.96906 7.226263,-6.96906 0.09615,0 4.039543,3.84879 8.76309,8.55287 l 8.588266,8.55286 -5.244619,5.24705 -5.244619,5.24704 7.00263,7.12382 7.002631,7.12381 -10.29145,6.90572 c -5.660299,3.79814 -10.34754,6.92238 -10.416092,6.94274 -0.06855,0.0204 -3.755135,-3.5577 -8.192406,-7.95127 z"
         id="path1003" />
    </g>
  </g>
</svg>
