<?xml version="1.0" encoding="UTF-8" standalone="no"?>
<svg
   xmlns:dc="http://purl.org/dc/elements/1.1/"
   xmlns:cc="http://creativecommons.org/ns#"
   xmlns:rdf="http://www.w3.org/1999/02/22-rdf-syntax-ns#"
   xmlns:svg="http://www.w3.org/2000/svg"
   xmlns="http://www.w3.org/2000/svg"
   xmlns:xlink="http://www.w3.org/1999/xlink"
   id="svg8"
   version="1.1"
   viewBox="0 0 70 96.199997"
   height="96.199997mm"
   width="70mm">
  <defs
     id="defs2">
    <linearGradient
       gradientUnits="userSpaceOnUse"
       gradientTransform="scale(0.85158188,1.1742852)"
       id="a"
       x1="24.289503"
       x2="140.66586"
       y1="24.096535"
       y2="108.74606">
      <stop
         offset="0%"
         stop-color="#fff"
         stop-opacity=".1"
         id="stop815" />
      <stop
         offset="14%"
         stop-color="#fff"
         stop-opacity=".08"
         id="stop817" />
      <stop
         offset="61%"
         stop-color="#fff"
         stop-opacity=".02"
         id="stop819" />
      <stop
         offset="100%"
         stop-color="#fff"
         stop-opacity="0"
         id="stop821" />
    </linearGradient>
    <path
       id="b"
       d="m 106.687,35.2742 c -0.186,-1.0977 -0.967,-2 -2.0244,-2.338 -1.0574,-0.338 -2.2148,-0.057 -3.0002,0.73 L 86.2473,49.166 74.1273,26.0205 C 73.614,25.0419 72.6023,24.4291 71.5,24.4291 c -1.1023,0 -2.114,0.6128 -2.6273,1.5914 L 62.245,38.6765 45.62,7.5726 C 45.017,6.4429 43.7612,5.8266 42.502,6.0429 41.2428,6.2592 40.2626,7.2589 40.0685,8.5256 L 24,111.701 66.9727,135.8664 c 2.6985,1.5113 5.985,1.5113 8.6836,0 L 119,111.701 106.687,35.274 Z" />
  </defs>
  <metadata
     id="metadata5">
    <rdf:RDF>
      <cc:Work
         rdf:about="">
        <dc:format>image/svg+xml</dc:format>
        <dc:type
           rdf:resource="http://purl.org/dc/dcmitype/StillImage" />
        <dc:title></dc:title>
      </cc:Work>
    </rdf:RDF>
  </metadata>
  <g
     transform="translate(0,-200.8)"
     id="layer1">
    <g
       transform="matrix(2.7736997,0,0,2.7736997,-92.260769,-158.66069)"
       id="g875">
      <path
         style="fill:#ffa000;stroke-width:0.26458332"
         d="m 33.27647,157.58076 4.268311,-27.31244 c 0.05218,-0.33496 0.312685,-0.59902 0.646906,-0.6558 0.334222,-0.0568 0.667279,0.10658 0.827088,0.40553 l 4.414176,8.23312 1.759479,-3.35002 c 0.13626,-0.25903 0.404892,-0.42122 0.6976,-0.42122 0.292709,0 0.561314,0.16219 0.697601,0.42122 L 58.499887,157.5807 H 33.27647 Z"
         id="path829" />
      <path
         style="fill:#f57c00;stroke-width:0.26458332"
         d="M 48.022413,146.94152 43.43094,138.24725 33.276496,157.58076 Z"
         id="path831" />
      <path
         style="fill:#ffca28;stroke-width:0.26458332"
         d="M 58.500072,157.58076 55.23088,137.35063 c -0.0494,-0.29051 -0.256725,-0.52916 -0.537501,-0.61912 -0.280776,-0.09 -0.588063,-0.0151 -0.796581,0.1932 l -20.620302,20.65575 11.409733,6.39853 c 0.716492,0.40005 1.589088,0.40005 2.305579,0 l 11.508264,-6.39853 z"
         id="path833" />
      <path
         style="fill:#ffffff;fill-opacity:0.2;stroke-width:0.26458332"
         d="m 55.230854,137.35063 c -0.0494,-0.29051 -0.256725,-0.52916 -0.537501,-0.61912 -0.280776,-0.09 -0.588063,-0.0151 -0.796581,0.1932 l -4.092655,4.10305 -3.218259,-6.12674 c -0.13626,-0.25903 -0.404892,-0.42122 -0.6976,-0.42122 -0.292709,0 -0.561314,0.16219 -0.697601,0.42122 l -1.759479,3.35002 -4.414388,-8.23299 c -0.160072,-0.29903 -0.493527,-0.46212 -0.828145,-0.40492 -0.334619,0.0572 -0.594255,0.32192 -0.645848,0.65715 l -4.266327,27.31048 h -0.01376 l 0.01376,0.0158 0.112316,0.0552 20.502033,-20.52571 c 0.208412,-0.20942 0.516466,-0.28469 0.797983,-0.195 0.281517,0.0897 0.489214,0.32927 0.538109,0.62063 l 3.241623,20.0488 0.03154,-0.0197 -3.269192,-20.23012 z m -21.916946,20.19269 4.230873,-27.0799 c 0.05154,-0.33522 0.311785,-0.59994 0.646113,-0.65714 0.334327,-0.0572 0.667808,0.10583 0.828145,0.40492 l 4.413912,8.23312 1.759479,-3.35003 c 0.13626,-0.25902 0.404892,-0.42121 0.6976,-0.42121 0.292709,0 0.561314,0.16219 0.697601,0.42121 l 3.15296,5.99652 -16.426868,16.45251 z"
         id="path835" />
      <path
         style="opacity:0.2;fill:#a52714;stroke-width:0.26458332"
         d="m 46.991808,163.78616 c -0.716491,0.40005 -1.589087,0.40005 -2.305579,0 l -11.382163,-6.38074 -0.0276,0.17542 11.409733,6.39656 c 0.716491,0.40005 1.589087,0.40005 2.305579,0 l 11.508263,-6.39656 -0.02955,-0.1813 -11.478683,6.3867 z"
         id="path837" />
      <use
         height="100%"
         width="100%"
         y="0"
         x="0"
         style="fill:url(#a)"
         xlink:href="#b"
         id="use839"
         transform="matrix(0.26458333,0,0,0.26458333,26.970576,128.02185)" />
    </g>
  </g>
</svg>
