<?xml version="1.0" encoding="UTF-8" standalone="no"?>
<!-- Created with Inkscape (http://www.inkscape.org/) -->

<svg
   xmlns:dc="http://purl.org/dc/elements/1.1/"
   xmlns:cc="http://creativecommons.org/ns#"
   xmlns:rdf="http://www.w3.org/1999/02/22-rdf-syntax-ns#"
   xmlns:svg="http://www.w3.org/2000/svg"
   xmlns="http://www.w3.org/2000/svg"
   xmlns:sodipodi="http://sodipodi.sourceforge.net/DTD/sodipodi-0.dtd"
   xmlns:inkscape="http://www.inkscape.org/namespaces/inkscape"
   version="1.1"
   id="svg64"
   width="397.31802"
   height="450.20001"
   viewBox="0 0 397.31802 450.20001"
   sodipodi:docname="Javascript.svg"
   inkscape:version="0.92.5 (0.92.5+69)">
  <metadata
     id="metadata70">
    <rdf:RDF>
      <cc:Work
         rdf:about="">
        <dc:format>image/svg+xml</dc:format>
        <dc:type
           rdf:resource="http://purl.org/dc/dcmitype/StillImage" />
        <dc:title></dc:title>
      </cc:Work>
    </rdf:RDF>
  </metadata>
  <defs
     id="defs68" />
  <sodipodi:namedview
     pagecolor="#ffffff"
     bordercolor="#666666"
     borderopacity="1"
     objecttolerance="10"
     gridtolerance="10"
     guidetolerance="10"
     inkscape:pageopacity="0"
     inkscape:pageshadow="2"
     inkscape:window-width="1920"
     inkscape:window-height="1024"
     id="namedview66"
     showgrid="false"
     fit-margin-top="0"
     fit-margin-left="0"
     fit-margin-right="0"
     fit-margin-bottom="0"
     inkscape:zoom="0.5"
     inkscape:cx="64.235455"
     inkscape:cy="176.27616"
     inkscape:window-x="0"
     inkscape:window-y="31"
     inkscape:window-maximized="1"
     inkscape:current-layer="svg64" />
  <path
     style="fill:#ffffff;stroke-width:1.33333337"
     d="m 1.33372,0.0321274 0.0625,4.999981 C 1.43066,7.782097 9.39784,98.8324 19.10129,207.36567 l 17.64258,197.33398 79.29492,22.20117 c 43.61211,12.21062 80.19493,22.26265 81.29493,22.33985 1.1,0.0771 38.16591,-9.87392 82.36914,-22.11329 70.87044,-19.6232 80.43786,-22.57875 80.94531,-25.00781 0.707,-3.38418 35.41255,-394.8986292 35.37695,-399.087454 l -0.0254,-2.9999886 H 198.66575 Z"
     id="path118"
     inkscape:connector-curvature="0" />
  <path
     inkscape:connector-curvature="0"
     id="path88"
     d="m 116.66667,428.22897 -80,-22.36163 -1.04545,-5.91717 C 34.69191,394.69039 0,7.2162908 0,2.0966898 0,0.2437874 20.25565,0.0334274 198.66667,0.0334274 c 188.32331,0 198.66587,0.12147 198.65133,2.3333224 -0.0628,9.5533132 -35.97164,402.1581402 -36.85409,402.9395802 -1.11511,0.98746 -155.95653,44.12552 -161.13057,44.89017 -1.46667,0.21676 -38.66667,-9.66863 -82.66667,-21.96753 z m 132.44436,-79.01302 c 26.88893,-7.41602 49.27699,-13.86602 49.75121,-14.33333 0.47423,-0.46731 3.62071,-32.34964 6.99216,-70.84964 3.37146,-38.5 6.47022,-72.55 6.88612,-75.66667 l 0.75622,-5.66666 h -58.08171 -58.08169 v 24.66666 24.66667 h 31.35873 31.35873 l -0.6238,3 c -0.34309,1.65 -1.67673,15.82935 -2.96364,31.50967 -1.36361,16.6149 -2.98028,29.1501 -3.87486,30.04469 -0.84427,0.84427 -13.62206,4.75671 -28.3951,8.69431 l -26.86006,7.15929 v 25.12935 c 0,17.15185 0.45852,25.12936 1.44436,25.12936 0.7944,0 23.4444,-6.06767 50.33333,-13.4837 z m 63.62125,-197.5163 C 311.85092,145.16627 304,57.537044 304,54.232926 c 0,-2.006912 -4.61566,-2.199702 -52.66666,-2.199702 h -52.66667 v 25.793616 25.79361 l 23.66667,0.91217 c 13.01666,0.50168 26.71548,1.26521 30.4418,1.69673 l 6.77512,0.78459 1.64474,20.17619 c 0.9046,11.0969 1.98248,22.42618 2.39528,25.17618 l 0.75055,5 h 24.57795 24.57796 z"
     style="fill:#eaebec;stroke-width:1.33333337"
     sodipodi:nodetypes="sccsssccsscsccccccccsscscssscsscccsccsscccc" />
  <path
     inkscape:connector-curvature="0"
     id="path80"
     d="M 116.0386,426.90075 36.74387,404.69965 19.10122,207.36631 C 9.39776,98.83304 1.43039,7.783397 1.39595,5.0334084 L 1.33335,0.0334274 H 198.66667 396 l 0.0256,2.9999886 c 0.0356,4.1888248 -34.67072,395.703354 -35.37772,399.087534 -0.50745,2.42906 -10.07454,5.38483 -80.94498,25.00803 -44.20323,12.23937 -81.26951,22.19028 -82.36951,22.11315 -1.1,-0.0772 -37.68263,-10.13076 -81.29473,-22.34138 z m 133.13264,-76.74193 c 27.41084,-7.62076 50.2269,-14.48533 50.70234,-15.2546 0.47542,-0.76927 3.75001,-34.28 7.27684,-74.46829 3.52682,-40.18828 6.70121,-74.11962 7.05418,-75.40295 0.60635,-2.20456 -4.05766,-2.33333 -84.51377,-2.33333 H 144.5353 l 3.62565,-38.33334 c 1.99411,-21.08333 3.67367,-38.38792 3.73235,-38.45464 0.0587,-0.0667 12.5567,-0.46537 27.77337,-0.8859 24.95099,-0.68957 76.40477,1.30088 78.12613,3.02224 0.64308,0.64308 4.87387,42.15037 4.87387,47.81645 0,2.79381 0.37699,2.83519 25.83621,2.83519 h 25.83623 l -0.60884,-5.66667 c -0.33487,-3.11667 -2.52341,-27.26667 -4.86345,-53.66661 l -4.25462,-47.999812 -99.63942,-0.34182 c -79.26871,-0.27194 -99.64168,6.5e-4 -99.65038,1.333326 -0.007,0.921346 -0.58701,6.775132 -1.29109,13.008438 C 102.32756,80.449992 89.333343,226.18882 89.333343,230.2139 v 3.15241 h 84.783857 84.78387 l -0.75581,5 c -0.4157,2.75 -1.73364,16.7 -2.92876,31 -1.19512,14.3 -2.55774,26.3694 -3.02806,26.82091 -1.24218,1.19249 -51.11936,14.51707 -54.22958,14.48731 -1.44404,-0.0138 -14.32552,-3.22779 -28.62552,-7.14216 l -26,-7.11703 -0.95343,-11.19119 c -0.52439,-6.15514 -1.32215,-14.94117 -1.7728,-19.5245 l -0.81936,-8.33334 h -25.2272 -25.227207 l 0.0559,5 c 0.1044,9.35062 6.16783,72.33478 7.04834,73.21528 1.01833,1.01835 97.912237,28.25511 100.895817,28.36171 1.1,0.0393 24.42706,-6.16372 51.83791,-13.78448 z"
     style="fill:#f0be25;stroke-width:1.33333337"
     sodipodi:nodetypes="ccsccccccscccccscscsccsssccscscssccccsccscsscccccccc" />
  <path
     inkscape:connector-curvature="0"
     id="path78"
     d="M 116.0386,426.90075 36.74387,404.69965 19.10122,207.36631 C 9.39776,98.83304 1.43039,7.783397 1.39595,5.0334084 L 1.33335,0.0334274 H 198.66667 396 l 0.0256,2.9999886 c 0.0356,4.1888248 -34.67072,395.703354 -35.37772,399.087534 -0.50745,2.42906 -10.07454,5.38483 -80.94498,25.00803 -44.20323,12.23937 -81.26951,22.19028 -82.36951,22.11315 -1.1,-0.0772 -37.68263,-10.13076 -81.29473,-22.34138 z m 147.87439,-29.70081 c 34.88119,-9.62484 64.07555,-18.17484 64.87636,-19 1.24625,-1.28417 31.37211,-331.453946 31.25089,-342.499982 l -0.0402,-3.666654 h -80.66666 -80.66667 v 9.333294 9.3333 H 152 c -36.43861,0 -46.66906,0.36529 -46.6776,1.666656 -0.007,0.916666 -0.58701,6.766642 -1.29109,12.999948 C 102.32756,80.449992 89.333343,226.18882 89.333343,230.2139 v 3.15241 H 144 198.66667 v 38.66667 c 0,30.05784 -0.37107,38.66108 -1.66667,38.64155 -0.91666,-0.0139 -13.36666,-3.22779 -27.66666,-7.14216 l -26,-7.11703 -0.95343,-11.19119 c -0.52439,-6.15514 -1.32215,-14.94117 -1.7728,-19.5245 l -0.81936,-8.33334 h -25.2272 -25.227207 l 0.0559,5 c 0.15972,14.30148 6.3465,72.67926 7.79746,73.576 0.8819,0.54504 24.075687,7.2095 51.541737,14.80988 l 49.93823,13.81888 v 25.06428 c 0,13.78536 0.41084,25.0643 0.91299,25.0643 0.50213,0 29.45213,-7.87487 64.33333,-17.49971 z M 148.02046,144.72462 c 1.91684,-20.88627 3.7464,-38.21141 4.06569,-38.50032 0.31928,-0.28889 10.93052,-0.81163 23.58052,-1.16161 l 23,-0.63634 v 39.13664 39.13666 H 171.60098 144.5353 Z"
     style="fill:#e4a126;stroke-width:1.33333337"
     sodipodi:nodetypes="ccsccccccscccscccccccscsscccscscsscccccscsssscscccccs" />
</svg>
