<?xml version="1.0" encoding="UTF-8" standalone="no"?>
<svg
   xmlns:dc="http://purl.org/dc/elements/1.1/"
   xmlns:cc="http://creativecommons.org/ns#"
   xmlns:rdf="http://www.w3.org/1999/02/22-rdf-syntax-ns#"
   xmlns:svg="http://www.w3.org/2000/svg"
   xmlns="http://www.w3.org/2000/svg"
   id="svg8"
   version="1.1"
   viewBox="0 0 50 56.919999"
   height="56.919998mm"
   width="50mm">
  <defs
     id="defs2">
    <linearGradient
       gradientUnits="userSpaceOnUse"
       gradientTransform="scale(0.85158188,1.1742852)"
       id="a"
       x1="24.289503"
       x2="140.66586"
       y1="24.096535"
       y2="108.74606">
      <stop
         offset="0%"
         stop-color="#fff"
         stop-opacity=".1"
         id="stop815" />
      <stop
         offset="14%"
         stop-color="#fff"
         stop-opacity=".08"
         id="stop817" />
      <stop
         offset="61%"
         stop-color="#fff"
         stop-opacity=".02"
         id="stop819" />
      <stop
         offset="100%"
         stop-color="#fff"
         stop-opacity="0"
         id="stop821" />
    </linearGradient>
    <path
       id="b"
       d="m 106.687,35.2742 c -0.186,-1.0977 -0.967,-2 -2.0244,-2.338 -1.0574,-0.338 -2.2148,-0.057 -3.0002,0.73 L 86.2473,49.166 74.1273,26.0205 C 73.614,25.0419 72.6023,24.4291 71.5,24.4291 c -1.1023,0 -2.114,0.6128 -2.6273,1.5914 L 62.245,38.6765 45.62,7.5726 C 45.017,6.4429 43.7612,5.8266 42.502,6.0429 41.2428,6.2592 40.2626,7.2589 40.0685,8.5256 L 24,111.701 66.9727,135.8664 c 2.6985,1.5113 5.985,1.5113 8.6836,0 L 119,111.701 106.687,35.274 Z" />
    <clipPath
       id="a-3">
      <path
         d="m 239.03,226.605 -42.13,24.317 c -1.578,0.91 -2.546,2.59 -2.546,4.406 v 48.668 c 0,1.817 0.968,3.496 2.546,4.406 l 42.133,24.336 c 1.575,0.907 3.517,0.907 5.09,0 l 42.126,-24.336 c 1.57,-0.91 2.54,-2.59 2.54,-4.406 v -48.668 c 0,-1.816 -0.97,-3.496 -2.55,-4.406 l -42.12,-24.317 c -0.79,-0.453 -1.67,-0.68 -2.55,-0.68 -0.88,0 -1.76,0.227 -2.55,0.68"
         id="path1224" />
    </clipPath>
    <linearGradient
       id="b-6"
       x1="-0.34799999"
       x2="1.251"
       gradientTransform="matrix(-38.064915,77.652126,-77.652126,-38.064915,258.72325,244.62943)"
       gradientUnits="userSpaceOnUse">
      <stop
         offset=".3"
         stop-color="#3E863D"
         id="stop1227" />
      <stop
         offset=".5"
         stop-color="#55934F"
         id="stop1229" />
      <stop
         offset=".8"
         stop-color="#5AAD45"
         id="stop1231" />
    </linearGradient>
    <clipPath
       id="c">
      <path
         d="m 195.398,307.086 c 0.403,0.523 0.907,0.976 1.5,1.316 l 36.14,20.875 6.02,3.46 c 0.9,0.52 1.926,0.74 2.934,0.665 0.336,-0.027 0.672,-0.09 1,-0.183 l 44.434,-81.36 c -0.34,-0.37 -0.738,-0.68 -1.184,-0.94 l -27.586,-15.93 -14.582,-8.39 c -0.414,-0.24 -0.863,-0.41 -1.32,-0.53 z m 0,0"
         id="path1234" />
    </clipPath>
    <linearGradient
       id="d"
       x1="-0.456"
       x2="0.58200002"
       gradientTransform="matrix(106.8057,-78.916731,78.916731,106.8057,235.18824,285.39477)"
       gradientUnits="userSpaceOnUse">
      <stop
         offset=".57"
         stop-color="#3E863D"
         id="stop1237" />
      <stop
         offset=".72"
         stop-color="#619857"
         id="stop1239" />
      <stop
         offset="1"
         stop-color="#76AC64"
         id="stop1241" />
    </linearGradient>
    <clipPath
       id="e">
      <path
         d="m 241.066,225.953 c -0.707,0.07 -1.398,0.29 -2.035,0.652 l -42.01,24.247 45.3,82.51 c 0.63,-0.09 1.25,-0.3 1.81,-0.624 l 42.13,-24.336 c 1.3,-0.754 2.19,-2.03 2.46,-3.476 l -46.18,-78.89 c -0.34,-0.067 -0.68,-0.102 -1.03,-0.102 -0.14,0 -0.28,0.007 -0.42,0.02"
         id="path1244" />
    </clipPath>
    <linearGradient
       id="f"
       x1="0.043000001"
       x2="0.98400003"
       gradientTransform="matrix(97.417,0,0,97.417,192.862,279.652)"
       gradientUnits="userSpaceOnUse">
      <stop
         offset=".16"
         stop-color="#6BBF47"
         id="stop1247" />
      <stop
         offset=".38"
         stop-color="#79B461"
         id="stop1249" />
      <stop
         offset=".47"
         stop-color="#75AC64"
         id="stop1251" />
      <stop
         offset=".7"
         stop-color="#659E5A"
         id="stop1253" />
      <stop
         offset=".9"
         stop-color="#3E863D"
         id="stop1255" />
    </linearGradient>
  </defs>
  <metadata
     id="metadata5">
    <rdf:RDF>
      <cc:Work
         rdf:about="">
        <dc:format>image/svg+xml</dc:format>
        <dc:type
           rdf:resource="http://purl.org/dc/dcmitype/StillImage" />
        <dc:title></dc:title>
      </cc:Work>
    </rdf:RDF>
  </metadata>
  <g
     transform="translate(0,-240.08)"
     id="layer1">
    <g
       transform="matrix(1.5008494,0,0,1.5008494,76.712681,9.5914698)"
       id="g1334">
      <g
         clip-path="url(#a-3)"
         transform="matrix(0.35277713,0,0,0.35277713,-119.67649,73.874916)"
         id="g1270">
        <path
           d="m 331.363,246.793 -118.715,-58.19 -60.87,124.174 118.712,58.193 z m 0,0"
           id="path1268"
           style="fill:url(#b-6)" />
      </g>
      <g
         clip-path="url(#c)"
         transform="matrix(0.35277713,0,0,0.35277713,-119.67649,73.874916)"
         id="g1274">
        <path
           style="fill:url(#d)"
           d="m 144.07,264.004 83.825,113.453 110.86,-81.906 -83.83,-113.45 z m 0,0"
           id="path1272" />
      </g>
      <g
         clip-path="url(#e)"
         transform="matrix(0.35277713,0,0,0.35277713,-119.67649,73.874916)"
         id="g1278">
        <path
           style="fill:url(#f)"
           d="m 197.02,225.934 v 107.43 h 91.683 v -107.43 z m 0,0"
           id="path1276" />
      </g>
    </g>
  </g>
</svg>
